<svg xmlns="http://www.w3.org/2000/svg" version="1.1" xmlns:xlink="http://www.w3.org/1999/xlink" xmlns:svgjs="http://svgjs.dev/svgjs" width="100%" height="100%" viewBox="0 0 1000 600"><rect width="1000" height="600" x="0" y="0" fill="#234e70"/><g><rect width="333.3333333333333" height="333.3333333333333" y="269.93739359934636" fill="#fbf8be" transform="matrix(0.5046117794826697,0,0,0.5046117794826696,0,79.68443788308493)" x="247.71517944335938"/><path d="M454.46518795055147 511.6040673416854L408.86518795055144 511.6040673416854L435.2651879505514 361.6040673416854L528.8651879505514 361.6040673416854L516.1318546172181 400.0040673416854L473.89852128388475 400.0040673416854L470.5318546172181 420.17073400835204L509.4318546172181 420.17073400835204L502.93185461721805 455.9374006750187L464.06518795055143 455.9374006750187L454.46518795055147 511.6040673416854ZM427.8318546172181 361.6040673416854L425.89852128388475 372.4040673416854L324.36518795055144 361.6040673416854L427.8318546172181 361.6040673416854ZM423.7318546172181 384.63740067501874L422.06518795055143 395.4374006750187L320.2985212838848 384.63740067501874L423.7318546172181 384.63740067501874ZM419.89852128388475 407.67073400835204L417.96518795055147 418.47073400835205L316.2318546172181 407.67073400835204L419.89852128388475 407.67073400835204ZM415.83185461721814 430.7374006750187L413.8985212838848 441.5374006750187L312.1318546172181 430.7374006750187L415.83185461721814 430.7374006750187ZM411.7318546172181 453.77073400835206L409.83185461721814 464.5707340083521L308.06518795055143 453.77073400835206L411.7318546172181 453.77073400835206ZM407.6651879505514 476.80406734168537L405.7318546172181 487.6040673416854L303.96518795055147 476.80406734168537L407.6651879505514 476.80406734168537ZM403.56518795055143 500.0707340083521L401.66518795055146 510.87073400835203L299.89852128388475 500.0707340083521L403.56518795055143 500.0707340083521Z " fill="#234e70" transform="matrix(0.5046117794826697,0,0,0.5046117794826696,0,79.68443788308493)"/><path d="M833.1743812352036 511.6040612191301L833.1743812352036 511.6040612191301Q803.4920030874655 511.6040612191301 791.5056159883152 500.03360553351496Q779.5192288891649 488.46314984789984 779.5192288891649 465.3222384766696L779.5192288891649 465.3222384766696Q779.5192288891649 459.08326727364187 780.3510917162353 451.86118545680364Q781.1451425966206 444.63910363996547 782.5063726772812 436.4717231560018L782.5063726772812 436.4717231560018Q786.8925584927432 411.4402144505208 795.3246226035019 394.84076985579844Q803.7566867142606 378.2035133143911 820.0914476821878 369.92269699037246Q836.426208650115 361.60406871966876 864.4826730903974 361.60406871966876L864.4826730903974 361.60406871966876Q870.45696066663 361.60406871966876 878.7755889373337 362.17124791994405Q887.0564052613523 362.7006151735343 894.8078543317808 364.06184525419485Q902.5971153488942 365.42307533485547 906.9454892176711 367.61616824258647L906.9454892176711 367.61616824258647L893.0685047842701 405.42811492760313Q883.804577846441 403.2728339665572 874.956582322147 402.4409711394868Q866.1085867978531 401.6469202591015 860.6636664752108 401.6469202591015L860.6636664752108 401.6469202591015Q848.9419630028556 401.6469202591015 842.9676754266229 403.38626980661223Q836.9555759037053 405.16343130080804 835.8968413965248 410.87303525024555L835.8968413965248 410.87303525024555L824.4398215509647 473.4896189606332L836.9555759037053 473.4896189606332Q842.7029917998278 473.4896189606332 846.7866820418096 472.1283888799726Q850.8703722837914 470.76715879931197 851.9291067909719 465.3222384766696L851.9291067909719 465.3222384766696L853.8575160719078 454.7348934048649L842.7029917998278 454.7348934048649L848.1479121224702 423.69128517646624L903.1264826024844 423.69128517646624L889.5141817958785 500.71422057384524Q874.5406509086118 506.7263200967629 859.5671200213452 509.184096631289Q844.5935891340786 511.6040612191301 833.1743812352036 511.6040612191301ZM800.2023637258691 373.3257721920239L800.2023637258691 373.3257721920239L716.6379615519821 364.32652888098994L811.394699944634 364.32652888098994Q804.853233168126 368.14553549617665 800.2023637258691 373.3257721920239ZM783.0735518775565 401.34442468562133L783.0735518775565 401.34442468562133L680.149433000941 390.4545840403365L787.6866093731285 390.4545840403365Q786.590062919263 393.17704420165774 785.3800806253425 395.78606852292387Q784.170098331422 398.357280897505 783.0735518775565 401.34442468562133ZM778.1579988085043 416.62045114636805L775.7002222739782 428.0396590452431L669.2595923556562 416.62045114636805L778.1579988085043 416.62045114636805ZM771.6165320319964 454.1677142045897L771.6165320319964 454.1677142045897L664.3818512332891 442.7485063057146L772.977762112657 442.7485063057146Q772.7130784858618 445.73565009383094 772.2971470723268 448.6093580418922Q771.9190276054766 451.44525404326845 771.6165320319964 454.1677142045897ZM772.4483948590668 480.29576936393624L772.4483948590668 480.29576936393624L665.4405857404695 468.8765614650612L771.3518484052013 468.8765614650612Q771.3518484052013 471.8637052531775 771.7677798187365 474.7374132012388Q772.1837112322717 477.573309202615 772.4483948590668 480.29576936393624ZM784.170098331422 505.3650900161023L784.170098331422 505.3650900161023L689.148676311975 495.2693002512028L777.0614523546388 495.2693002512028Q778.4226824352994 497.991760412524 780.1998439294952 500.6007847337902Q781.9770054236909 503.17199710837133 784.170098331422 505.3650900161023ZM1013.6508027627883 508.3522338042186L966.5749291399426 508.3522338042186L1026.9984199425994 364.32652888098994L1094.530556722039 364.32652888098994L1105.1179017938439 508.3522338042186L1057.4748489707226 508.3522338042186L1056.4161144635423 486.3078688868539L1022.082866873547 486.3078688868539L1013.6508027627883 508.3522338042186ZM1017.9991766315653 364.32652888098994L1013.121435509198 376.04823235334516L902.029936148619 364.32652888098994L1017.9991766315653 364.32652888098994ZM1007.1093359862804 390.4545840403365L1002.2315948639133 402.4409711394868L890.875411876539 390.4545840403365L1007.1093359862804 390.4545840403365ZM1052.5971078483553 405.99529412787837L1036.5270305072236 447.36156380128665L1056.4161144635423 447.36156380128665L1056.4161144635423 405.99529412787837L1052.5971078483553 405.99529412787837ZM996.2194953409956 416.62045114636805L991.0770705918334 428.56902629883336L879.7208876044591 416.62045114636805L996.2194953409956 416.62045114636805ZM985.0649710689157 442.7485063057146L980.1872299465485 454.7348934048649L868.5663633323792 442.7485063057146L985.0649710689157 442.7485063057146ZM974.1751304236308 468.8765614650612L968.9948937277835 480.8629485642115L857.3740271136143 468.8765614650612L974.1751304236308 468.8765614650612ZM963.020606151551 495.2693002512028L957.8403694557036 507.2556873503531L846.2195028415343 495.2693002512028L963.020606151551 495.2693002512028ZM1222.7508679309308 508.3522338042186L1176.204361561675 508.3522338042186L1209.1385671243247 364.32652888098994L1268.2008278463209 364.32652888098994L1272.2845180883023 431.85866566042984L1273.3810645421681 431.85866566042984L1300.8703497821753 364.32652888098994L1359.9704224508564 364.32652888098994L1342.5391150290634 508.3522338042186L1295.690113086328 508.3522338042186L1303.063442689906 449.81934033581274L1301.7022126092456 449.81934033581274L1277.2000711573546 508.3522338042186L1241.2409098599037 508.3522338042186L1237.157219617922 449.81934033581274L1235.7959895372614 449.81934033581274L1222.7508679309308 508.3522338042186ZM1200.1393238132905 364.32652888098994L1197.1521800251744 376.5775996069354L1083.073536876479 364.32652888098994L1200.1393238132905 364.32652888098994ZM1193.9003526102629 390.4545840403365L1191.1778924489417 402.70565476628195L1076.8345656734514 390.4545840403365L1193.9003526102629 390.4545840403365ZM1187.8882530873452 416.62045114636805L1184.901109299229 428.8715218723135L1070.5577825237383 416.62045114636805L1187.8882530873452 416.62045114636805ZM1182.1786491379075 442.7485063057146L1179.4561889765864 454.99957703166007L1064.2809993740257 442.7485063057146L1182.1786491379075 442.7485063057146ZM1176.204361561675 468.8765614650612L1173.1794058268738 481.12763219100657L1058.042028170998 468.8765614650612L1176.204361561675 468.8765614650612ZM1169.9275784119623 495.2693002512028L1167.2051182506411 507.5203709771483L1051.7652450212852 495.2693002512028L1169.9275784119623 495.2693002512028ZM1517.5706162340061 508.3522338042186L1421.4904597073787 508.3522338042186L1446.5219684128597 364.32652888098994L1542.3752532593767 364.32652888098994L1529.5570033331564 405.16343130080804L1485.2035898716317 405.16343130080804L1481.9139505100352 423.69128517646624L1522.7508529298534 423.69128517646624L1518.137795434281 449.81934033581274L1477.5655766412583 449.81934033581274L1474.3137492263468 468.34719421147093L1524.6792622107891 468.34719421147093L1517.5706162340061 508.3522338042186ZM1437.5605370485105 364.32652888098994L1435.6321277675747 376.5775996069354L1320.192254538219 364.32652888098994L1437.5605370485105 364.32652888098994ZM1433.1743512330486 390.4545840403365L1431.0190702720029 402.70565476628195L1315.5791970426467 390.4545840403365L1433.1743512330486 390.4545840403365ZM1428.5612937374767 416.62045114636805L1426.3682008297455 428.8715218723135L1310.9661395470748 416.62045114636805L1428.5612937374767 416.62045114636805ZM1423.9482362419044 442.7485063057146L1421.7551433341737 454.99957703166007L1306.3152701048175 442.7485063057146L1423.9482362419044 442.7485063057146ZM1419.2973667996475 468.8765614650612L1417.1420858386014 481.12763219100657L1301.7022126092456 468.8765614650612L1419.2973667996475 468.8765614650612ZM1414.6843093040757 495.2693002512028L1412.4912163963445 507.5203709771483L1297.0513431669888 495.2693002512028L1414.6843093040757 495.2693002512028ZM1645.828739389583 508.3522338042186L1600.0762839007125 508.3522338042186L1625.1077926061935 364.32652888098994L1694.2658430930887 364.32652888098994Q1709.504057607151 364.32652888098994 1718.0873695046498 368.97739832324703Q1726.6706814021481 373.59045581881907 1730.338440230595 381.7578363027827Q1734.0061990590416 389.9252167867463 1734.0061990590416 400.28569017844086L1734.0061990590416 400.28569017844086Q1734.0061990590416 408.45307066240446 1731.6996703112554 420.1369621880746Q1729.3931415634697 431.85866566042984 1723.2676062004966 442.86194214576966Q1717.142070837524 453.90303057779454 1705.4203673651687 460.4444973543024L1705.4203673651687 460.4444973543024L1720.961077452711 508.3522338042186L1670.0283852679931 508.3522338042186L1659.7057238229836 466.4187849305351L1653.164257046476 466.4187849305351L1645.828739389583 508.3522338042186ZM1616.1463612418447 364.32652888098994L1614.2179519609085 376.5775996069354L1498.8158906782378 364.32652888098994L1616.1463612418447 364.32652888098994ZM1611.7979873730674 390.4545840403365L1609.6048944653367 402.70565476628195L1494.1650212359805 390.4545840403365L1611.7979873730674 390.4545840403365ZM1664.0540976917605 404.0668848469425L1659.7057238229836 429.1362054991086L1668.4024715605374 429.1362054991086Q1673.84739188318 429.1362054991086 1677.8176462851065 427.62372763170794Q1681.7500887403485 426.14906171099227 1682.5819515674189 420.968825015145L1682.5819515674189 420.968825015145L1684.2078652748746 411.4402144505208Q1684.2078652748746 410.87303525024555 1684.3213011149296 410.49491578339536Q1684.4725489016696 410.0789843698602 1684.4725489016696 409.8143007430651L1684.4725489016696 409.8143007430651Q1684.4725489016696 405.99529412787837 1680.5401064464277 405.049995460753Q1676.5698520445012 404.0668848469425 1670.0283852679931 404.0668848469425L1670.0283852679931 404.0668848469425L1664.0540976917605 404.0668848469425ZM1607.1471179308105 416.62045114636805L1604.9918369697648 428.8715218723135L1489.5519637404086 416.62045114636805L1607.1471179308105 416.62045114636805ZM1602.5340604352382 442.7485063057146L1600.3409675275075 454.99957703166007L1484.9010942981513 442.7485063057146L1602.5340604352382 442.7485063057146ZM1597.8831909929813 468.8765614650612L1595.7279100319356 481.12763219100657L1480.2880368025794 468.8765614650612L1597.8831909929813 468.8765614650612ZM1593.2701334974095 495.2693002512028L1591.0770405896783 507.5203709771483L1475.6749793070076 495.2693002512028L1593.2701334974095 495.2693002512028Z " fill="#fbf8be" transform="matrix(0.5046117794826697,0,0,0.5046117794826696,0,79.68443788308493)"/></g></svg>